<?xml version="1.0" encoding="utf-8"?>
<!-- Generator: Adobe Illustrator 28.2.0, SVG Export Plug-In . SVG Version: 6.00 Build 0)  -->
<svg version="1.1" id="grapes" xmlns="http://www.w3.org/2000/svg" xmlns:xlink="http://www.w3.org/1999/xlink" x="0px" y="0px"
	 viewBox="0 0 104.2 150" style="enable-background:new 0 0 104.2 150;" xml:space="preserve">
<style type="text/css">
	.st0{fill:#9D2690;}
	.st1{fill:#A8D626;}
	.st2{fill:#A54D00;}

	#grapes:hover #color1 {
  		fill: green;
	}
	#grapes:hover #color2 {
  		fill: #A8D626;
	}
	#grapes:hover #color3 {
  		fill: #A8D626;
	}
	#grapes:hover #color4 {
  		fill: #A8D626;
	}
	#grapes:hover #color5 {
  		fill: #A8D626;
	}
	#grapes:hover #color6 {
  		fill: green;
	}
	#grapes:hover #color7 {
  		fill: green;
	}
	#grapes:hover #color8 {
  		fill: #A8D626;
	}
	#grapes:hover #color9 {
  		fill: #A8D626;
	}
	#grapes:hover #color10 {
  		fill: #A8D626;
	}
	#grapes:hover #color11 {
  		fill: #A8D626;
	}
	#grapes:hover #color12 {
  		fill: green;
	}
	#grapes:hover #lcolor1 {
  		fill: green;
	}
	#grapes:hover #lcolor2 {
  		fill: green;
	}

	#g-bodypath1 {
  	transform-origin: center;
  	transition: all 0.5s ease-in-out;
	}
	#g-bodypath2 {
  	transform-origin: center;
  	transition: all 0.5s ease-in-out;
	}
	#g-bodypath3 {
  	transform-origin: center;
  	transition: all 0.5s ease-in-out;
	}
	#g-bodypath4 {
  	transform-origin: center;
  	transition: all 0.5s ease-in-out;
	}
	#g-leave {
  	transform-origin: center;
  	transition: all 0.5s ease-in-out;
	}
	#g-branch {
  	transform-origin: center;
  	transition: all 0.5s ease-in-out;
	}

	#grapes:hover #g-bodypath1 {
  	transform: rotate(12deg);
	}
	#grapes:hover #g-bodypath2 {
  	transform: rotate(12deg);
	}
	#grapes:hover #g-bodypath3 {
  	transform: rotate(-15deg);
	}
	#grapes:hover #g-bodypath4 {
  	transform: rotate(-12deg);
	}
	#grapes:hover #g-leave {
  	transform: rotate(-5deg);
	}
	#grapes:hover #g-branch {
  	transform: rotate(-5deg);
	}
	
</style>
<script>
	const theGrapes = document.querySelector("#grapes");
	
	function logTheId() {
		console.log(this.id)
	}
	theGrapes.addEventListener("click", logTheId);
</script>
<g id="g-bodypath1">
	<g>
		<g>
			<circle id="color1" class="st0" cx="52.1" cy="134.1" r="14.3"/>
		</g>
		<g>
			<path d="M52.1,150c-8.8,0-15.9-7.1-15.9-15.9c0-8.8,7.1-15.9,15.9-15.9S68,125.3,68,134.1C68,142.9,60.9,150,52.1,150z
				 M52.1,121.4c-7,0-12.7,5.7-12.7,12.7c0,7,5.7,12.7,12.7,12.7c7,0,12.7-5.7,12.7-12.7C64.8,127.1,59.1,121.4,52.1,121.4z"/>
		</g>
	</g>
</g>
<g id="g-leave">
	<g>
		<g>
			<g>
				<path id="lcolor1" class="st1" d="M54.3,39.8c0,0,3.1-24.2,28.6-22.2C82.9,17.7,79.2,43.4,54.3,39.8z"/>
			</g>
			<g>
				<path d="M58.9,41.8c-1.6,0-3.2-0.1-4.9-0.4l-1.6-0.2l0.2-1.6c0-0.2,3.3-23.7,27.2-23.7c1,0,2.1,0,3.1,0.1l1.7,0.1l-0.2,1.7
					C84.5,18.1,80.9,41.8,58.9,41.8z M56.2,38.4c9.4,0.9,16.4-2.6,21.1-10.3c2.1-3.5,3.2-7,3.7-9c-0.4,0-0.7,0-1.1,0
					C62,19.1,57.3,33.5,56.2,38.4z"/>
			</g>
		</g>
		<g>
			<g>
				<path id="lcolor2" class="st1" d="M49.9,39.8c0,0-3.1-24.2-28.6-22.2C21.3,17.7,25,43.4,49.9,39.8z"/>
			</g>
			<g>
				<path d="M45.3,41.8L45.3,41.8c-21.9,0-25.6-23.6-25.6-23.9l-0.2-1.7l1.7-0.1c1.1-0.1,2.1-0.1,3.1-0.1
					c23.9,0,27.2,23.4,27.2,23.7l0.2,1.6l-1.6,0.2C48.5,41.6,46.9,41.8,45.3,41.8z M23.3,19.2c0.5,2,1.6,5.5,3.7,9
					c4.2,6.9,10.4,10.4,18.4,10.4h0c0.9,0,1.8,0,2.7-0.1C46.9,33.4,41.9,18.6,23.3,19.2z"/>
			</g>
		</g>
	</g>
</g>
<g id="g-branch">
	<g>
		<g>
			<path class="st2" d="M50.5,41c0,0-6.3-15.7,0-38.6l7.9,4.6c0,0-6.1,25.1-2.8,34.4L50.5,41z"/>
		</g>
		<g>
			<path d="M57.9,43.3l-8.6-0.7L49,41.6C48.7,41,42.5,25.2,48.9,2l0.6-2l10.8,6.3L60,7.5c-0.1,0.2-5.9,24.8-2.9,33.5L57.9,43.3z
				 M51.6,39.5l1.8,0.2c-1.7-9.5,2-27.1,3.1-31.8l-5.1-3C47,22.9,50.5,36,51.6,39.5z"/>
		</g>
	</g>
</g>
<g id="g-bodypath2">
	<g>
		<g>
			<g>
				<circle id= "color2" class="st0" cx="39.4" cy="113.3" r="14.3"/>
			</g>
			<g>
				<path d="M39.4,129.2c-8.8,0-15.9-7.1-15.9-15.9c0-8.8,7.1-15.9,15.9-15.9c8.8,0,15.9,7.1,15.9,15.9
					C55.4,122,48.2,129.2,39.4,129.2z M39.4,100.6c-7,0-12.7,5.7-12.7,12.7c0,7,5.7,12.7,12.7,12.7c7,0,12.7-5.7,12.7-12.7
					C52.2,106.3,46.5,100.6,39.4,100.6z"/>
			</g>
		</g>
		<g>
			<g>
				<circle id= "color3" class="st0" cx="64.8" cy="113.3" r="14.3"/>
			</g>
			<g>
				<path d="M64.8,129.2c-8.8,0-15.9-7.1-15.9-15.9c0-8.8,7.1-15.9,15.9-15.9c8.8,0,15.9,7.1,15.9,15.9
					C80.7,122,73.6,129.2,64.8,129.2z M64.8,100.6c-7,0-12.7,5.7-12.7,12.7c0,7,5.7,12.7,12.7,12.7c7,0,12.7-5.7,12.7-12.7
					C77.5,106.3,71.8,100.6,64.8,100.6z"/>
			</g>
		</g>
	</g>
</g>
<g id="g-bodypath3">
	<g>
		<g>
			<g>
				<circle id= "color4" class="st0" cx="26.8" cy="93.4" r="14.3"/>
			</g>
			<g>
				<path d="M26.8,109.3c-8.8,0-15.9-7.1-15.9-15.9c0-8.8,7.1-15.9,15.9-15.9c8.8,0,15.9,7.1,15.9,15.9S35.6,109.3,26.8,109.3z
					 M26.8,80.7c-7,0-12.7,5.7-12.7,12.7c0,7,5.7,12.7,12.7,12.7c7,0,12.7-5.7,12.7-12.7C39.5,86.4,33.8,80.7,26.8,80.7z"/>
			</g>
		</g>
		<g>
			<g>
				<circle id= "color5" class="st0" cx="77.5" cy="93.4" r="14.3"/>
			</g>
			<g>
				<path d="M77.5,109.3c-8.8,0-15.9-7.1-15.9-15.9c0-8.8,7.1-15.9,15.9-15.9c8.8,0,15.9,7.1,15.9,15.9S86.2,109.3,77.5,109.3z
					 M77.5,80.7c-7,0-12.7,5.7-12.7,12.7c0,7,5.7,12.7,12.7,12.7c7,0,12.7-5.7,12.7-12.7C90.2,86.4,84.5,80.7,77.5,80.7z"/>
			</g>
		</g>
		<g>
			<g>
				<circle id= "color6" class="st0" cx="52.1" cy="93.4" r="14.3"/>
			</g>
			<g>
				<path d="M52.1,109.3c-8.8,0-15.9-7.1-15.9-15.9c0-8.8,7.1-15.9,15.9-15.9S68,84.6,68,93.4C68,102.1,60.9,109.3,52.1,109.3z
					 M52.1,80.7c-7,0-12.7,5.7-12.7,12.7c0,7,5.7,12.7,12.7,12.7c7,0,12.7-5.7,12.7-12.7C64.8,86.4,59.1,80.7,52.1,80.7z"/>
			</g>
		</g>
	</g>
	<g>
		<g>
			<g>
				<circle id= "color7" class="st0" cx="26.8" cy="55.4" r="14.3"/>
			</g>
			<g>
				<path d="M26.8,71.3c-8.8,0-15.9-7.1-15.9-15.9c0-8.8,7.1-15.9,15.9-15.9c8.8,0,15.9,7.1,15.9,15.9
					C42.7,64.1,35.6,71.3,26.8,71.3z M26.8,42.7c-7,0-12.7,5.7-12.7,12.7c0,7,5.7,12.7,12.7,12.7c7,0,12.7-5.7,12.7-12.7
					S33.8,42.7,26.8,42.7z"/>
			</g>
		</g>
		<g>
			<g>
				<circle id= "color8" class="st0" cx="77.5" cy="55.4" r="14.3"/>
			</g>
			<g>
				<path d="M77.5,71.3c-8.8,0-15.9-7.1-15.9-15.9c0-8.8,7.1-15.9,15.9-15.9c8.8,0,15.9,7.1,15.9,15.9
					C93.4,64.1,86.2,71.3,77.5,71.3z M77.5,42.7c-7,0-12.7,5.7-12.7,12.7c0,7,5.7,12.7,12.7,12.7c7,0,12.7-5.7,12.7-12.7
					S84.5,42.7,77.5,42.7z"/>
			</g>
		</g>
		<g>
			<g>
				<circle id= "color9" class="st0" cx="52.1" cy="55.4" r="14.3"/>
			</g>
			<g>
				<path d="M52.1,71.3c-8.8,0-15.9-7.1-15.9-15.9c0-8.8,7.1-15.9,15.9-15.9S68,46.6,68,55.4C68,64.1,60.9,71.3,52.1,71.3z
					 M52.1,42.7c-7,0-12.7,5.7-12.7,12.7c0,7,5.7,12.7,12.7,12.7c7,0,12.7-5.7,12.7-12.7C64.8,48.4,59.1,42.7,52.1,42.7z"/>
			</g>
		</g>
	</g>
</g>
<g id="g-bodypath4">
	<g>
		<g>
			<g>
				<circle id= "color10" class="st0" cx="15.9" cy="72.6" r="14.3"/>
			</g>
			<g>
				<path d="M15.9,88.5C7.1,88.5,0,81.3,0,72.6c0-8.8,7.1-15.9,15.9-15.9s15.9,7.1,15.9,15.9C31.8,81.3,24.7,88.5,15.9,88.5z
					 M15.9,59.8c-7,0-12.7,5.7-12.7,12.7c0,7,5.7,12.7,12.7,12.7s12.7-5.7,12.7-12.7C28.6,65.5,22.9,59.8,15.9,59.8z"/>
			</g>
		</g>
		<g>
			<g>
				<circle id= "color11" class="st0" cx="66.6" cy="72.6" r="14.3"/>
			</g>
			<g>
				<path d="M66.6,88.5c-8.8,0-15.9-7.1-15.9-15.9c0-8.8,7.1-15.9,15.9-15.9s15.9,7.1,15.9,15.9C82.5,81.3,75.4,88.5,66.6,88.5z
					 M66.6,59.8c-7,0-12.7,5.7-12.7,12.7c0,7,5.7,12.7,12.7,12.7c7,0,12.7-5.7,12.7-12.7C79.3,65.5,73.6,59.8,66.6,59.8z"/>
			</g>
		</g>
		<g>
			<g>
				<circle id= "color12" class="st0" cx="88.3" cy="72.6" r="14.3"/>
			</g>
			<g>
				<path d="M88.3,88.5c-8.8,0-15.9-7.1-15.9-15.9c0-8.8,7.1-15.9,15.9-15.9s15.9,7.1,15.9,15.9C104.2,81.3,97.1,88.5,88.3,88.5z
					 M88.3,59.8c-7,0-12.7,5.7-12.7,12.7c0,7,5.7,12.7,12.7,12.7c7,0,12.7-5.7,12.7-12.7C101,65.5,95.3,59.8,88.3,59.8z"/>
			</g>
		</g>
		<g>
			<g>
				<circle id= "color12" class="st0" cx="41.3" cy="72.6" r="14.3"/>
			</g>
			<g>
				<path d="M41.3,88.5c-8.8,0-15.9-7.1-15.9-15.9c0-8.8,7.1-15.9,15.9-15.9s15.9,7.1,15.9,15.9C57.2,81.3,50,88.5,41.3,88.5z
					 M41.3,59.8c-7,0-12.7,5.7-12.7,12.7c0,7,5.7,12.7,12.7,12.7c7,0,12.7-5.7,12.7-12.7C54,65.5,48.3,59.8,41.3,59.8z"/>
			</g>
		</g>
	</g>
</g>
</svg>
