<?xml version="1.0" encoding="UTF-8"?>
<svg id="strawberry" xmlns="http://www.w3.org/2000/svg" version="1.1" viewBox="0 0 150 150">
    <style>
      .st0, .st1, .st2, .st3, .st4 {stroke-width: 0px;}

      .st0{fill: #ff2a23;}
      .st1{fill: #dc0d27;}
      .st2{fill: #759937;}
      .st3{fill: #98b715;}
      .st4{fill: #ffebca;}

      #strawberry:hover #s-bodyred {
  		fill: #dc0d27;
      }

      #spot-1, #spot-2, #spot-3, #spot-4, #spot-5, #spot-6, #spot-7, #spot-8, #spot-9{
  	    transition: all 1s ease-in-out;
      }

      #strawberry:hover #spot-1,
      #strawberry:hover #spot-2,
      #strawberry:hover #spot-3,
      #strawberry:hover #spot-4,
      #strawberry:hover #spot-5,
      #strawberry:hover #spot-6,
      #strawberry:hover #spot-7,
      #strawberry:hover #spot-8,
      #strawberry:hover #spot-9 {
        animation: rotation 1s infinite linear;
      }

      @keyframes rotation {
        0% {
          transform: rotate(0deg);
        }
        100% {
          transform: rotate(360deg);
        }
      }

      #spot-1 {
        transform-origin: 68px 87px;
      }
      #spot-2 {
        transform-origin: 40px 98px;
      }
      #spot-3 {
        transform-origin: 65px 113px;
      }
      #spot-4 {
        transform-origin: 95px 122px;
      }
      #spot-5 {
        transform-origin: 93px 94px;
      }
      #spot-6 {
        transform-origin: 91px 65px;
      }
      #spot-7 {
        transform-origin: 103px 40px;
      }
      #spot-8 {
        transform-origin: 118px 67px;
      }
      #spot-9 {
        transform-origin: 120px 100px;
      }
    </style>
    <script>

	  const theStrawberry = document.querySelector("#strawberry");
	
	  function logTheId() {
		console.log(this.id)
	  }
	  theStrawberry.addEventListener("click", logTheId);

    </script>

  <path id="s-bodyred" class="st0" d="M85.7,19.3c-.7-.7-20.8-.4-20.8-.4l-46,51.1s-1.6,15-.1,21.4c.8,3.6,2.5,9.9,7.7,17.5,3.5,5.2,6.3,7.4,6.3,7.4l27.5,11.9,45.9,4.7,26.9-17.4s2-8,1.3-13.9c-.7-5.9-1.9-10.3-1.7-14.2.1-3.9,2.4-19.4-1.2-30.5-3.2-9.8-12.7-23.4-24.6-30.4s-21.2-7.1-21.2-7.1Z"/>
  <path id="s-lowershadow" class="st1" d="M78.7,137.1c6.5,1.6,19.1,7.4,24.6,8.2,5.6.9,13.6.9,22.1-5.5,7.6-5.7,11.1-11.6,11.5-16.5.6-6.9-.6-13.1-1-16-.4-2.9-2-9.3-2-9.3,0,0-4.7,10.4-10.6,15.3s-20,11.4-34.1,11.8c-14.1.5-23.5.9-33.4-1.6s-26.7-11.1-26.7-11.1c0,0,5.9,8.8,17.4,15.3,8.7,4.9,13.9,6.2,17.5,7,5.5,1.3,9.7,1.2,14.7,2.5h0Z"/>
  <path id="s-uppershadow" class="st1" d="M42,38.7s-24.1,35.9-24.3,41.9c-.2,6.8,1.2,10.9,1.2,10.9,0,0,4.9-.2,9.7-3.2,2.2-1.4,3.9-2.8,3.9-2.8,0,0,6.8,9.5,9,9.6s8-4.1,10.6-7.1c2.6-3.1,4.3-8.7,4.3-8.7,0,0,4,1.8,12.3,1.5,8.3-.2,10.9-1,11.5-1.6.6-.6,1.4-4.5,2.2-7.5.7-3.1.8-7.4.8-9.3s-.5-4.6-.5-4.6c0,0,6.6-3.1,9.6-6,3.1-2.9,4.5-4.4,5-5.4.5-1-1.3-5.7-3.4-8.9s-4.9-5.4-4.9-5.4c0,0,4.2-3.3,5.9-5.1s3.9-4.7,3.9-4.7c0,0-3.6-1.6-7.8-2.5s-12.8-2.1-12.8-2.1l-35.9,21Z"/>
  <path id="s-leafshadow" class="st2" d="M22.6,61.9c-.3.2-10.6,16.4-10.8,17.8-.1,1.5-.4,3.9,1.3,4.7,1.1.6,2.1-.5,2.9-1.1s2.4-1.7,4.2-2.6c1.8-.9,5-1.5,7.2-2.9,3.3-1.9,6.3-6.6,6.3-6.6l8.1,11.7-2.9,7.2s2,2.4,2.4,2.8c.7.6,5.1-2.7,7.4-8.6s2.9-13.3,2.9-13.3c0,0,4.6,3.2,9,4.1,4.5.9,13.6.5,14.2-.2.5-.6.8-9.3.4-13.2s-2.6-9-2.6-9c0,0,4.6.7,10.1-.7s9.6-4.7,9.8-6-3.1-4.5-3.1-4.5l-13.6-4.8-1.6-4.1s6.9-2,10.6-6.3c2.6-3.1,7.3-7,7.3-8.9s-3-1.4-3-1.4l-25.2,10.1S22.6,61.9,22.6,61.9Z"/>
  <path id="s-leaf" class="st3" d="M34.9,31c7.4-6.8,14.9-12.4,26.9-15.5,12-3.1,20.4-1.6,22.3-1.2,1.9.3,7.8,1.4,7.3,2-.2.3-4.5,2.3-8.7,5-4.2,2.7-6,3.6-7.1,4.2-1.6.9-3.9,2.1-3.8,3.6.1,1.9,2.8,2.1,5.6,3.6,2.9,1.5,6.4,3.8,9,6.1,2.6,2.3,4,3.2,4.3,4.1.4,1-8.2,5.6-14.1,5.5s-8.6-2.7-10-.7c-1.4,2.1,3,7.2,4.1,12.9s1.1,11.4,1.1,11.4c0,0-8.8.7-12.8-.8-6.1-2.2-6.9-6.9-10.2-6.3-4.5.8-.5,8.5-3.6,17.8-2.8,8.3-5.2,8.9-5.2,8.9,0,0-3.9-4-5.3-6.2s-3-3.3-3.3-8c-.3-4.7.2-10.6-2.1-10.9s-2.9,4.6-5.5,7c-2.6,2.4-6.6,3.7-8.5,5.1-1.8,1.5-3.7,4.1-3.7,4.1,0,0-1.3-7.9,2.2-18.6s9.4-22.8,20.7-33.3h0Z"/>
  <path id="s-stem" class="st3" d="M21,8.3c.3-1.1,5.3-4.1,7.7-4s1.9.8,2.3,1.7-1.4,9.6,1.4,14.6c2.5,4.5,4.7,6.8,9.6,6.6,4.9-.1-6.2,14.5-6.2,14.5,0,0-9.5-5.3-13.3-15s-1.9-16.8-1.5-18.5Z"/>
  <g id="s-spots">
    <path id="spot-9" class="st4" d="M118.6,99.8c-2.2.1-4.2,3.1-3,7.1.9,3.3,3.3,4.5,5.1,4.3,1.7-.2,3.3-2.9,2.7-6.6-.5-2.8-1.8-4.9-4.7-4.8Z"/>
    <path id="spot-8" class="st4" d="M115.7,66.9c-3,.8-2.7,4.7-2,6.8.6,2.1,2.4,3.5,4.4,3.2s3.1-3.5,2.6-5.8c-.5-2.4-2.2-4.8-5-4.1Z"/>
    <path id="spot-7" class="st4" d="M100.1,39.4c-2.2,1.9-1.2,4.9.6,6.9,1.9,2,4.3,2.5,5.9,1.3s1.1-5.5-.8-7.3c-1.9-1.8-4.1-2.4-5.8-.9Z"/>
    <path id="spot-6" class="st4" d="M89.6,63.9c-1.7,1.5-1.4,4.9.5,7.2s4.8,3.6,6.3,1.7c1.5-1.9.4-5.7-1.1-7.7-1.5-2-4.2-2.5-5.7-1.2Z"/>
    <path id="spot-5" class="st4" d="M90.1,92.9c-1.6,2-.3,4.8,1.1,6.6,1.7,2,5.5,3.2,7.3,1.5,2-2,1.1-5.4-1.5-7.8-2-1.8-5.3-2.4-6.9-.4Z"/>
    <path id="spot-4" class="st4" d="M92.5,121.9c-.7,2.4.4,4.7,4.9,5.5,4,.6,6-1.2,5.9-3.2,0-1.4-1.6-3.7-5.3-4.3-3-.5-4.9,0-5.5,2.1Z"/>
    <path id="spot-3" class="st4" d="M61.9,112.3c-1.5,2.3.4,5.5,2.2,6.9,2.2,1.7,5.8,1.3,6.7-.7.9-2-.2-4.8-2.4-6.3-2.2-1.6-5.2-1.8-6.5.1Z"/>
    <path id="spot-2" class="st4" d="M37.3,98.2c-2.8,2.4-.8,5.9,1,7.3,2,1.5,4.5,2.6,6.8.6s0-6-1.3-7.2c-1.4-1.2-4.3-2.5-6.5-.7Z"/>
    <path id="spot-1" class="st4" d="M65.3,87c-1.5,2.3,0,5.8,1.8,7s4.8,2.1,6.5-.1c1.7-2.2.7-5.1-1.3-6.8-2-1.7-5.4-2.5-7,0Z"/>
  </g>
</svg>